<?xml version="1.0" encoding="UTF-8" standalone="no"?>
<!DOCTYPE svg PUBLIC "-//W3C//DTD SVG 1.1//EN"
 "http://www.w3.org/Graphics/SVG/1.1/DTD/svg11.dtd">
<!-- Generated by graphviz version 9.0.0 (20230911.1827)
 -->
<!-- Title: G Pages: 1 -->
<svg width="386pt" height="394pt"
 viewBox="0.00 0.00 385.98 393.88" xmlns="http://www.w3.org/2000/svg" xmlns:xlink="http://www.w3.org/1999/xlink">
<g id="graph0" class="graph" transform="scale(1 1) rotate(0) translate(4 389.88)">
<title>G</title>
<polygon fill="white" stroke="none" points="-4,4 -4,-389.88 381.98,-389.88 381.98,4 -4,4"/>
<!-- n0in1 -->
<!-- n0in2 -->
<!-- n0in1&#45;&gt;n0in2 -->
<!-- n5 -->
<!-- 4 -->
<g id="n5" class="node">
<title>n5</title>
<polygon fill="none" stroke="black" points="34.99,-38.44 34.99,-62.69 106.99,-62.69 106.99,-38.44 34.99,-38.44"/>
<text text-anchor="start" x="67.61" y="-44.39" font-family="Serif" font-size="14.00">4</text>
</g>
<!-- n0in1&#45;&gt;n5 -->
<!-- A -->
<g id="e1" class="edge">
<title>n0in1:s&#45;&gt;n5:n</title>
<path fill="none" stroke="black" d="M11.99,-384.44C11.99,-356.73 22.99,-350.78 22.99,-323.06 22.99,-323.06 22.99,-323.06 22.99,-110.81 22.99,-89.15 42.7,-86.86 46.39,-68.83"/>
<polygon fill="black" stroke="black" points="48.1,-69.34 46.84,-64.2 44.62,-69 48.1,-69.34"/>
<text text-anchor="middle" x="27.86" y="-204.14" font-family="Serif" font-size="14.00">A</text>
</g>
<!-- n0in3 -->
<!-- n0in2&#45;&gt;n0in3 -->
<!-- n0in2&#45;&gt;n5 -->
<!-- B -->
<g id="e2" class="edge">
<title>n0in2:s&#45;&gt;n5:n</title>
<path fill="none" stroke="black" d="M70.99,-384.44C70.99,-357.16 70.99,-350.34 70.99,-323.06 70.99,-323.06 70.99,-323.06 70.99,-110.81 70.99,-91.77 70.99,-85.44 70.99,-69.17"/>
<polygon fill="black" stroke="black" points="72.74,-69.2 70.99,-64.2 69.24,-69.2 72.74,-69.2"/>
<text text-anchor="middle" x="75.49" y="-204.14" font-family="Serif" font-size="14.00">B</text>
</g>
<!-- n0in4 -->
<!-- n0in3&#45;&gt;n0in4 -->
<!-- n4 -->
<!-- 4 -->
<g id="n4" class="node">
<title>n4</title>
<polygon fill="none" stroke="black" points="117.99,-99.69 117.99,-123.94 165.99,-123.94 165.99,-99.69 117.99,-99.69"/>
<text text-anchor="start" x="138.61" y="-105.64" font-family="Serif" font-size="14.00">4</text>
</g>
<!-- n0in3&#45;&gt;n4 -->
<!-- C -->
<g id="e3" class="edge">
<title>n0in3:s&#45;&gt;n4:n</title>
<path fill="none" stroke="black" d="M129.99,-384.44C129.99,-357.16 129.99,-350.34 129.99,-323.06 129.99,-323.06 129.99,-323.06 129.99,-172.06 129.99,-153.02 129.99,-146.69 129.99,-130.42"/>
<polygon fill="black" stroke="black" points="131.74,-130.45 129.99,-125.45 128.24,-130.45 131.74,-130.45"/>
<text text-anchor="middle" x="134.49" y="-241.39" font-family="Serif" font-size="14.00">C</text>
</g>
<!-- n0in5 -->
<!-- n0in4&#45;&gt;n0in5 -->
<!-- n3 -->
<!-- 4 -->
<g id="n3" class="node">
<title>n3</title>
<polygon fill="none" stroke="black" points="176.99,-160.94 176.99,-185.19 224.99,-185.19 224.99,-160.94 176.99,-160.94"/>
<text text-anchor="start" x="197.61" y="-166.89" font-family="Serif" font-size="14.00">4</text>
</g>
<!-- n0in4&#45;&gt;n3 -->
<!-- D -->
<g id="e4" class="edge">
<title>n0in4:s&#45;&gt;n3:n</title>
<path fill="none" stroke="black" d="M188.99,-384.44C188.99,-297.96 188.99,-274.82 188.99,-191.31"/>
<polygon fill="black" stroke="black" points="190.74,-191.7 188.99,-186.7 187.24,-191.7 190.74,-191.7"/>
<text text-anchor="middle" x="193.86" y="-278.64" font-family="Serif" font-size="14.00">D</text>
</g>
<!-- n0in6 -->
<!-- n0in5&#45;&gt;n0in6 -->
<!-- n2 -->
<!-- 3 -->
<g id="n2" class="node">
<title>n2</title>
<polygon fill="none" stroke="black" points="235.99,-235.44 235.99,-259.69 283.99,-259.69 283.99,-235.44 235.99,-235.44"/>
<text text-anchor="start" x="256.61" y="-241.39" font-family="Serif" font-size="14.00">3</text>
</g>
<!-- n0in5&#45;&gt;n2 -->
<!-- G -->
<g id="e5" class="edge">
<title>n0in5:s&#45;&gt;n2:n</title>
<path fill="none" stroke="black" d="M247.99,-384.44C247.99,-331.16 247.99,-316.28 247.99,-266"/>
<polygon fill="black" stroke="black" points="249.74,-266.2 247.99,-261.2 246.24,-266.2 249.74,-266.2"/>
<text text-anchor="middle" x="252.86" y="-315.89" font-family="Serif" font-size="14.00">G</text>
</g>
<!-- n0in7 -->
<!-- n0in6&#45;&gt;n0in7 -->
<!-- n1 -->
<!-- 4 -->
<g id="n1" class="node">
<title>n1</title>
<polygon fill="none" stroke="black" points="294.99,-309.94 294.99,-334.19 342.99,-334.19 342.99,-309.94 294.99,-309.94"/>
<text text-anchor="start" x="315.61" y="-315.89" font-family="Serif" font-size="14.00">4</text>
</g>
<!-- n0in6&#45;&gt;n1 -->
<!-- F -->
<g id="e6" class="edge">
<title>n0in6:s&#45;&gt;n1:n</title>
<path fill="none" stroke="black" d="M306.99,-384.44C306.99,-364.37 306.99,-357.83 306.99,-340.51"/>
<polygon fill="black" stroke="black" points="308.74,-340.7 306.99,-335.7 305.24,-340.7 308.74,-340.7"/>
<text text-anchor="middle" x="310.74" y="-353.14" font-family="Serif" font-size="14.00">F</text>
</g>
<!-- n0in7&#45;&gt;n1 -->
<!-- E -->
<g id="e7" class="edge">
<title>n0in7:s&#45;&gt;n1:n</title>
<path fill="none" stroke="black" d="M365.99,-384.44C365.99,-359.56 336.75,-360.92 331.72,-340.55"/>
<polygon fill="black" stroke="black" points="333.47,-340.46 331.16,-335.69 329.99,-340.86 333.47,-340.46"/>
<text text-anchor="middle" x="361.11" y="-353.14" font-family="Serif" font-size="14.00">E</text>
</g>
<!-- n0out1 -->
<!-- n1&#45;&gt;n2 -->
<g id="e8" class="edge">
<title>n1:s&#45;&gt;n2:n</title>
<path fill="none" stroke="black" d="M318.99,-309.94C318.99,-281.75 279.04,-288.82 272.8,-266.14"/>
<polygon fill="black" stroke="black" points="274.54,-265.93 272.18,-261.19 271.07,-266.37 274.54,-265.93"/>
</g>
<!-- n2&#45;&gt;n3 -->
<g id="e9" class="edge">
<title>n2:s&#45;&gt;n3:n</title>
<path fill="none" stroke="black" d="M259.99,-235.44C259.99,-207.25 220.04,-214.32 213.8,-191.64"/>
<polygon fill="black" stroke="black" points="215.54,-191.43 213.18,-186.69 212.07,-191.87 215.54,-191.43"/>
</g>
<!-- n3&#45;&gt;n4 -->
<g id="e10" class="edge">
<title>n3:s&#45;&gt;n4:n</title>
<path fill="none" stroke="black" d="M200.99,-160.94C200.99,-136.64 161.72,-148.06 154.97,-129.9"/>
<polygon fill="black" stroke="black" points="156.77,-130.08 154.23,-125.43 153.32,-130.65 156.77,-130.08"/>
</g>
<!-- n4&#45;&gt;n5 -->
<g id="e11" class="edge">
<title>n4:s&#45;&gt;n5:n</title>
<path fill="none" stroke="black" d="M141.99,-99.69C141.99,-75.39 102.72,-86.81 95.97,-68.65"/>
<polygon fill="black" stroke="black" points="97.77,-68.83 95.23,-64.18 94.32,-69.4 97.77,-68.83"/>
</g>
<!-- n5&#45;&gt;n0out1 -->
<g id="e12" class="edge">
<title>n5:s&#45;&gt;n0out1:n</title>
<path fill="none" stroke="black" d="M70.99,-38.44C70.99,-24.31 70.99,-19.28 70.99,-7.71"/>
<polygon fill="black" stroke="black" points="72.74,-7.95 70.99,-2.95 69.24,-7.95 72.74,-7.95"/>
</g>
</g>
</svg>
