<?xml version="1.0" encoding="UTF-8" standalone="no"?>
<!DOCTYPE svg PUBLIC "-//W3C//DTD SVG 1.1//EN"
 "http://www.w3.org/Graphics/SVG/1.1/DTD/svg11.dtd">
<!-- Generated by graphviz version 9.0.0 (20230911.1827)
 -->
<!-- Title: G Pages: 1 -->
<svg width="467pt" height="323pt"
 viewBox="0.00 0.00 467.17 322.85" xmlns="http://www.w3.org/2000/svg" xmlns:xlink="http://www.w3.org/1999/xlink">
<g id="graph0" class="graph" transform="scale(1 1) rotate(0) translate(4 318.85)">
<title>G</title>
<polygon fill="white" stroke="none" points="-4,4 -4,-318.85 463.17,-318.85 463.17,4 -4,4"/>
<!-- n1 -->
<g id="box1" class="node">
<title>n1</title>
<ellipse fill="none" stroke="black" cx="386.21" cy="-134.26" rx="18" ry="18"/>
<text text-anchor="middle" x="386.21" y="-128.09" font-family="Serif" font-size="14.00">A</text>
</g>
<!-- n11 -->
<!-- junction -->
<g id="junction1" class="node">
<title>n11</title>
<ellipse fill="black" stroke="black" cx="422.82" cy="-146.89" rx="2.7" ry="2.7"/>
<text text-anchor="middle" x="417.12" y="-150.54" font-family="Serif" font-size="14.00">a</text>
</g>
<!-- n1&#45;&#45;n11 -->
<g id="edge1" class="edge">
<title>n1&#45;&#45;n11</title>
<path fill="none" stroke="black" d="M403.66,-140.28C410.14,-142.52 416.77,-144.8 420.28,-146.01"/>
</g>
<!-- n14 -->
<!-- junction -->
<g id="junction4" class="node">
<title>n14</title>
<ellipse fill="black" stroke="black" cx="348" cy="-117.77" rx="2.7" ry="2.7"/>
<text text-anchor="middle" x="342.3" y="-121.42" font-family="Serif" font-size="14.00">c</text>
</g>
<!-- n1&#45;&#45;n14 -->
<g id="edge7" class="edge">
<title>n1&#45;&#45;n14</title>
<path fill="none" stroke="black" d="M369.34,-126.98C362.3,-123.94 354.86,-120.73 350.89,-119.01"/>
</g>
<!-- n2 -->
<g id="box2" class="node">
<title>n2</title>
<ellipse fill="none" stroke="black" cx="349.47" cy="-76.15" rx="18" ry="18"/>
<text text-anchor="middle" x="349.47" y="-69.98" font-family="Serif" font-size="14.00">B</text>
</g>
<!-- n12 -->
<!-- junction -->
<g id="junction2" class="node">
<title>n12</title>
<ellipse fill="black" stroke="black" cx="353.91" cy="-37.65" rx="2.7" ry="2.7"/>
<text text-anchor="middle" x="347.83" y="-41.3" font-family="Serif" font-size="14.00">b</text>
</g>
<!-- n2&#45;&#45;n12 -->
<g id="edge3" class="edge">
<title>n2&#45;&#45;n12</title>
<path fill="none" stroke="black" d="M351.58,-57.81C352.35,-51.14 353.14,-44.34 353.57,-40.59"/>
</g>
<!-- n2&#45;&#45;n14 -->
<g id="edge8" class="edge">
<title>n2&#45;&#45;n14</title>
<path fill="none" stroke="black" d="M348.82,-94.53C348.55,-102.19 348.26,-110.3 348.11,-114.62"/>
</g>
<!-- n3 -->
<g id="box3" class="node">
<title>n3</title>
<ellipse fill="none" stroke="black" cx="312.98" cy="-140.12" rx="18" ry="18"/>
<text text-anchor="middle" x="312.98" y="-133.95" font-family="Serif" font-size="14.00">C</text>
</g>
<!-- n3&#45;&#45;n14 -->
<g id="edge9" class="edge">
<title>n3&#45;&#45;n14</title>
<path fill="none" stroke="black" d="M328.44,-130.25C334.89,-126.13 341.72,-121.78 345.35,-119.46"/>
</g>
<!-- n15 -->
<!-- junction -->
<g id="junction5" class="node">
<title>n15</title>
<ellipse fill="black" stroke="black" cx="295.53" cy="-177.12" rx="2.7" ry="2.7"/>
<text text-anchor="middle" x="289.46" y="-180.77" font-family="Serif" font-size="14.00">d</text>
</g>
<!-- n3&#45;&#45;n15 -->
<g id="edge10" class="edge">
<title>n3&#45;&#45;n15</title>
<path fill="none" stroke="black" d="M305.27,-156.46C302.06,-163.27 298.66,-170.48 296.85,-174.32"/>
</g>
<!-- n16 -->
<!-- junction -->
<g id="junction6" class="node">
<title>n16</title>
<ellipse fill="black" stroke="black" cx="272.15" cy="-140.3" rx="2.7" ry="2.7"/>
<text text-anchor="middle" x="266.45" y="-143.95" font-family="Serif" font-size="14.00">e</text>
</g>
<!-- n3&#45;&#45;n16 -->
<g id="edge12" class="edge">
<title>n3&#45;&#45;n16</title>
<path fill="none" stroke="black" d="M294.95,-140.2C287.43,-140.23 279.47,-140.27 275.23,-140.29"/>
</g>
<!-- n4 -->
<g id="box4" class="node">
<title>n4</title>
<ellipse fill="none" stroke="black" cx="255.48" cy="-176.79" rx="18" ry="18"/>
<text text-anchor="middle" x="255.48" y="-170.62" font-family="Serif" font-size="14.00">D</text>
</g>
<!-- n4&#45;&#45;n15 -->
<g id="edge11" class="edge">
<title>n4&#45;&#45;n15</title>
<path fill="none" stroke="black" d="M273.63,-176.94C280.92,-177 288.54,-177.06 292.59,-177.09"/>
</g>
<!-- n4&#45;&#45;n16 -->
<g id="edge13" class="edge">
<title>n4&#45;&#45;n16</title>
<path fill="none" stroke="black" d="M263.03,-160.25C266.06,-153.62 269.24,-146.67 270.92,-142.98"/>
</g>
<!-- n17 -->
<!-- junction -->
<g id="junction7" class="node">
<title>n17</title>
<ellipse fill="black" stroke="black" cx="223.57" cy="-197.65" rx="2.7" ry="2.7"/>
<text text-anchor="middle" x="218.62" y="-201.3" font-family="Serif" font-size="14.00">f</text>
</g>
<!-- n4&#45;&#45;n17 -->
<g id="edge14" class="edge">
<title>n4&#45;&#45;n17</title>
<path fill="none" stroke="black" d="M240.27,-186.73C234.88,-190.26 229.37,-193.86 226.23,-195.91"/>
</g>
<!-- n5 -->
<g id="box5" class="node">
<title>n5</title>
<ellipse fill="none" stroke="black" cx="192.22" cy="-217.58" rx="18" ry="18"/>
<text text-anchor="middle" x="192.22" y="-211.41" font-family="Serif" font-size="14.00">G</text>
</g>
<!-- n5&#45;&#45;n17 -->
<g id="edge15" class="edge">
<title>n5&#45;&#45;n17</title>
<path fill="none" stroke="black" d="M207.53,-207.85C212.75,-204.53 218.03,-201.17 221.04,-199.26"/>
</g>
<!-- n18 -->
<!-- junction -->
<g id="junction8" class="node">
<title>n18</title>
<ellipse fill="black" stroke="black" cx="159.71" cy="-235.45" rx="2.7" ry="2.7"/>
<text text-anchor="middle" x="153.63" y="-239.1" font-family="Serif" font-size="14.00">g</text>
</g>
<!-- n5&#45;&#45;n18 -->
<g id="edge16" class="edge">
<title>n5&#45;&#45;n18</title>
<path fill="none" stroke="black" d="M176.34,-226.31C170.93,-229.29 165.46,-232.29 162.34,-234.01"/>
</g>
<!-- n6 -->
<g id="box6" class="node">
<title>n6</title>
<ellipse fill="none" stroke="black" cx="125.68" cy="-252.41" rx="18" ry="18"/>
<text text-anchor="middle" x="125.68" y="-246.23" font-family="Serif" font-size="14.00">F</text>
</g>
<!-- n6&#45;&#45;n18 -->
<g id="edge17" class="edge">
<title>n6&#45;&#45;n18</title>
<path fill="none" stroke="black" d="M141.9,-244.33C147.65,-241.46 153.52,-238.53 156.88,-236.86"/>
</g>
<!-- n19 -->
<!-- junction -->
<g id="junction9" class="node">
<title>n19</title>
<ellipse fill="black" stroke="black" cx="108.35" cy="-288.75" rx="2.7" ry="2.7"/>
<text text-anchor="middle" x="102.28" y="-292.4" font-family="Serif" font-size="14.00">h</text>
</g>
<!-- n6&#45;&#45;n19 -->
<g id="edge18" class="edge">
<title>n6&#45;&#45;n19</title>
<path fill="none" stroke="black" d="M117.83,-268.88C114.68,-275.49 111.38,-282.4 109.63,-286.08"/>
</g>
<!-- n20 -->
<!-- junction -->
<g id="junction10" class="node">
<title>n20</title>
<ellipse fill="black" stroke="black" cx="86.02" cy="-244.95" rx="2.7" ry="2.7"/>
<text text-anchor="middle" x="81.45" y="-248.6" font-family="Serif" font-size="14.00">i</text>
</g>
<!-- n6&#45;&#45;n20 -->
<g id="edge20" class="edge">
<title>n6&#45;&#45;n20</title>
<path fill="none" stroke="black" d="M107.71,-249.03C100.5,-247.67 92.95,-246.26 88.94,-245.5"/>
</g>
<!-- n7 -->
<g id="box7" class="node">
<title>n7</title>
<ellipse fill="none" stroke="black" cx="68.81" cy="-281.32" rx="18" ry="18"/>
<text text-anchor="middle" x="68.81" y="-275.14" font-family="Serif" font-size="14.00">E</text>
</g>
<!-- n13 -->
<!-- junction -->
<g id="junction3" class="node">
<title>n13</title>
<ellipse fill="black" stroke="black" cx="34.9" cy="-297.9" rx="2.7" ry="2.7"/>
<text text-anchor="middle" x="30.32" y="-301.55" font-family="Serif" font-size="14.00">j</text>
</g>
<!-- n7&#45;&#45;n13 -->
<g id="edge5" class="edge">
<title>n7&#45;&#45;n13</title>
<path fill="none" stroke="black" d="M52.25,-289.42C46.6,-292.18 40.9,-294.97 37.64,-296.56"/>
</g>
<!-- n7&#45;&#45;n19 -->
<g id="edge19" class="edge">
<title>n7&#45;&#45;n19</title>
<path fill="none" stroke="black" d="M86.73,-284.69C93.92,-286.04 101.45,-287.45 105.45,-288.2"/>
</g>
<!-- n7&#45;&#45;n20 -->
<g id="edge21" class="edge">
<title>n7&#45;&#45;n20</title>
<path fill="none" stroke="black" d="M76.61,-264.84C79.74,-258.22 83.02,-251.31 84.76,-247.63"/>
</g>
<!-- n8 -->
<!-- n8&#45;&#45;n11 -->
<g id="edge2" class="edge">
<title>n8&#45;&#45;n11</title>
<path fill="none" stroke="black" d="M458.71,-157.07C456.96,-156.57 433.5,-149.92 425.48,-147.65"/>
</g>
<!-- n9 -->
<!-- n9&#45;&#45;n12 -->
<g id="edge4" class="edge">
<title>n9&#45;&#45;n12</title>
<path fill="none" stroke="black" d="M359.97,-1.13C359.42,-4.43 355.76,-26.48 354.41,-34.63"/>
</g>
<!-- n10 -->
<!-- n10&#45;&#45;n13 -->
<g id="edge6" class="edge">
<title>n10&#45;&#45;n13</title>
<path fill="none" stroke="black" d="M0.46,-310C2.11,-309.42 23.81,-301.8 31.89,-298.96"/>
</g>
</g>
</svg>
